<svg width="32" height="32" viewBox="0 0 32 32" fill="none" xmlns="http://www.w3.org/2000/svg">
<g id="Frame 1109820655">
<path id="Union" fill-rule="evenodd" clip-rule="evenodd" d="M4.81965 7.63931H6.81024L9.75855 18.6368C10.0755 19.8821 11.1969 20.7538 12.4819 20.7538H21.8804C23.2342 20.7538 24.3956 19.7885 24.6432 18.4575L26.1804 10.1953C26.3144 9.4752 25.7617 8.81024 25.0292 8.81024H9.19049L8.69969 6.88209C8.56761 6.3632 8.10038 6 7.56494 6H4.81965C4.36697 6 4 6.36697 4 6.81965C4 7.27234 4.36697 7.63931 4.81965 7.63931ZM11.5741 18.1746L9.66738 10.6837H24.1839L22.8014 18.1149C22.7188 18.5585 22.3317 18.8803 21.8804 18.8803H12.4819C12.0536 18.8803 11.6798 18.5897 11.5741 18.1746ZM12.3341 26.0003C13.36 26.0003 14.1917 25.1686 14.1917 24.1427C14.1917 23.1168 13.36 22.2852 12.3341 22.2852C11.3082 22.2852 10.4766 23.1168 10.4766 24.1427C10.4766 25.1686 11.3082 26.0003 12.3341 26.0003ZM22.1378 26.0003C23.1637 26.0003 23.9954 25.1686 23.9954 24.1427C23.9954 23.1168 23.1637 22.2852 22.1378 22.2852C21.1119 22.2852 20.2803 23.1168 20.2803 24.1427C20.2803 25.1686 21.1119 26.0003 22.1378 26.0003Z" fill="black"/>
</g>
</svg>
