<svg width="20" height="20" viewBox="0 0 20 20" fill="none" xmlns="http://www.w3.org/2000/svg">
<rect width="20" height="20" rx="10" fill="white"/>
<path d="M8.84517 15V7.36364H10.9631V15H8.84517ZM9.90909 6.37926C9.59422 6.37926 9.3241 6.27486 9.09872 6.06605C8.87666 5.85393 8.76562 5.60038 8.76562 5.3054C8.76562 5.01373 8.87666 4.76349 9.09872 4.55469C9.3241 4.34257 9.59422 4.23651 9.90909 4.23651C10.224 4.23651 10.4924 4.34257 10.7145 4.55469C10.9399 4.76349 11.0526 5.01373 11.0526 5.3054C11.0526 5.60038 10.9399 5.85393 10.7145 6.06605C10.4924 6.27486 10.224 6.37926 9.90909 6.37926Z" fill="#3FE2CB"/>
</svg>
