<svg width="39" height="39" viewBox="0 0 39 39" fill="none" xmlns="http://www.w3.org/2000/svg">
<path d="M6.58125 27.5844C6.03958 27.9635 5.48438 27.9906 4.91563 27.6656C4.34688 27.3406 4.0625 26.8531 4.0625 26.2031V12.7969C4.0625 12.1469 4.34688 11.6659 4.91563 11.3539C5.48438 11.0419 6.03958 11.0625 6.58125 11.4156L16.6562 18.1594C17.1438 18.4844 17.3875 18.9312 17.3875 19.5C17.3875 20.0687 17.1438 20.5156 16.6562 20.8406L6.58125 27.5844ZM22.8313 27.5844C22.2896 27.9635 21.7344 27.9906 21.1656 27.6656C20.5969 27.3406 20.3125 26.8531 20.3125 26.2031V12.7969C20.3125 12.1469 20.5969 11.6659 21.1656 11.3539C21.7344 11.0419 22.2896 11.0625 22.8313 11.4156L32.9062 18.1594C33.3937 18.4844 33.6375 18.9312 33.6375 19.5C33.6375 20.0687 33.3937 20.5156 32.9062 20.8406L22.8313 27.5844Z" fill="url(#paint0_linear_119_20114)"/>
<defs>
<linearGradient id="paint0_linear_119_20114" x1="5.6875" y1="17.0627" x2="26" y2="27.6252" gradientUnits="userSpaceOnUse">
<stop stop-color="#B9A252"/>
<stop offset="1" stop-color="#B9A252"/>
</linearGradient>
</defs>
</svg>
