<svg width="14" height="14" viewBox="0 0 14 14" fill="none" xmlns="http://www.w3.org/2000/svg">
<path d="M6.54448 1.02061C6.72516 0.639584 7.26736 0.639585 7.44804 1.02061L9.04424 4.38678C9.11544 4.53691 9.25655 4.64187 9.42082 4.66687L13.0233 5.21499C13.427 5.27642 13.5909 5.76968 13.3041 6.06041L10.6731 8.72794C10.5608 8.84181 10.5098 9.00253 10.5358 9.16033L11.1531 12.907C11.2208 13.3183 10.7852 13.627 10.4196 13.4269L7.23635 11.6843C7.08676 11.6024 6.90575 11.6024 6.75617 11.6843L3.57287 13.4269C3.20727 13.627 2.77167 13.3183 2.83943 12.907L3.45675 9.16033C3.48275 9.00253 3.43169 8.84181 3.31938 8.72794L0.688396 6.06041C0.401648 5.76968 0.565468 5.27642 0.96917 5.21499L4.5717 4.66687C4.73596 4.64187 4.87708 4.53691 4.94827 4.38678L6.54448 1.02061Z" fill="#FFD748"/>
</svg>
