<svg width="32" height="32" viewBox="0 0 32 32" fill="none" xmlns="http://www.w3.org/2000/svg">
<path d="M16 25C16 25 25 20.5669 25 13.8297C24.9922 12.7289 24.6217 11.6633 23.9489 10.8071C23.2762 9.95089 22.341 9.35467 21.2962 9.11586C20.2514 8.87705 19.1587 9.00976 18.1968 9.49232C17.2348 9.97488 16.4603 10.7787 16 11.7726C15.5397 10.7787 14.7652 9.97488 13.8032 9.49232C12.8413 9.00976 11.7486 8.87705 10.7038 9.11586C9.65899 9.35467 8.72381 9.95089 8.05107 10.8071C7.37833 11.6633 7.00779 12.7289 7 13.8297C7 20.5669 16 25 16 25Z" stroke="black" stroke-width="2.01316" stroke-linecap="round" stroke-linejoin="round"/>
</svg>
